HIERARCHY
ROOT Torso
{
	OFFSET 0.000000 0.000000 0.000000
	CHANNELS 6 Xposition Yposition Zposition Zrotation Yrotation Xrotation
	JOINT LHip
	{
		OFFSET 0.010000 0.060000 0.000000
		CHANNELS 6 Xposition Yposition Zposition Zrotation Yrotation Xrotation
		JOINT LeftThigh
		{
			OFFSET 0.000000 0.055000 -0.055000
			CHANNELS 6 Xposition Yposition Zposition Zrotation Yrotation Xrotation
			JOINT LeftLeg
			{
				OFFSET -0.015000 0.120000 0.000000
				CHANNELS 6 Xposition Yposition Zposition Zrotation Yrotation Xrotation
				JOINT LeftFoot
				{
					OFFSET 0.010000 0.100000 0.000000
					CHANNELS 6 Xposition Yposition Zposition Zrotation Yrotation Xrotation
					End Site
					{
						OFFSET -0.090000 0.035000 0.000000
					}
				}
			}
		}
	}
	JOINT RHip
	{
		OFFSET 0.010000 0.060000 0.000000
		CHANNELS 6 Xposition Yposition Zposition Zrotation Yrotation Xrotation
		JOINT RightThigh
		{
			OFFSET 0.000000 0.055000 0.055000
			CHANNELS 6 Xposition Yposition Zposition Zrotation Yrotation Xrotation
			JOINT RightLeg
			{
				OFFSET -0.015000 0.120000 0.000000
				CHANNELS 6 Xposition Yposition Zposition Zrotation Yrotation Xrotation
				JOINT RightFoot
				{
					OFFSET 0.010000 0.100000 0.000000
					CHANNELS 6 Xposition Yposition Zposition Zrotation Yrotation Xrotation
					End Site
					{
						OFFSET -0.090000 0.035000 0.000000
					}
				}
			}
		}
	}
	JOINT Neck
	{
		OFFSET 0.000000 -0.040000 -0.000000
		CHANNELS 6 Xposition Yposition Zposition Zrotation Yrotation Xrotation
		JOINT Head
		{
			OFFSET 0.000000 -0.100000 -0.000000
			CHANNELS 6 Xposition Yposition Zposition Zrotation Yrotation Xrotation
			End Site
			{
				OFFSET 0.000000 -0.070000 -0.000000
			}
		}
	}
	JOINT LeftUpperarm
	{
		OFFSET 0.000000 -0.075000 -0.098000
		CHANNELS 6 Xposition Yposition Zposition Zrotation Yrotation Xrotation
		JOINT LeftLowerarm
		{
			OFFSET -0.090000 -0.009000 0.000000
			CHANNELS 6 Xposition Yposition Zposition Zrotation Yrotation Xrotation
			End Site
			{
				OFFSET -0.105000 0.000000 0.000000
			}
		}
	}
	JOINT RightUpperarm
	{
		OFFSET 0.000000 -0.075000 0.098000
		CHANNELS 6 Xposition Yposition Zposition Zrotation Yrotation Xrotation
		JOINT RightLowerarm
		{
			OFFSET -0.090000 -0.009000 0.000000
			CHANNELS 6 Xposition Yposition Zposition Zrotation Yrotation Xrotation
			End Site
			{
				OFFSET -0.105000 0.000000 0.000000
			}
		}
	}
}
MOTION
Frames: 4
Frame Time: 0.041667
0.000000 0.000000 0.000000 -134.365544 76.243749 -139.150679 0.010000 0.060000 0.000000 -0.000002 -0.000001 -0.000003 0.000005 0.054993 -0.054992 30.461148 3.802250 10.178847 -0.015002 0.119992 -0.000004 -20.728379 0.600661 3.838000 0.010003 0.100003 0.000000 0.927391 -9.330312 -8.254031 0.010000 0.060000 0.000000 -0.000001 0.000002 -0.000003 0.000005 0.054993 0.055004 6.452193 2.895878 10.530761 -0.015000 0.119996 0.000008 -44.079217 -12.213024 -5.692325 0.010004 0.099999 0.000004 -21.615396 -16.776437 -21.960030 0.000000 -0.039992 -0.000004 -21.741098 -4.727871 12.931432 0.000000 -0.100000 -0.000000 -22.066618 0.487469 4.421807 0.000002 -0.075015 -0.098000 -82.870569 -14.540779 179.064843 -0.090008 -0.009008 -0.000002 -2.494158 -23.484238 -0.557006 0.000008 -0.075007 0.097992 280.254218 30.860974 194.805465 -0.090004 -0.009000 -0.000015 -9.364466 17.572588 26.852614 
0.000000 0.000000 0.000000 -130.453485 77.598995 -134.760069 0.010000 0.060000 0.000000 -0.000004 -0.000004 -0.000005 0.000000 0.055000 -0.055000 26.239241 4.058365 10.303795 -0.014999 0.120000 -0.000004 -18.874502 -0.434744 3.284484 0.009999 0.099998 0.000004 2.183580 -6.747044 -7.814341 0.010000 0.060000 0.000000 -0.000001 -0.000001 -0.000003 -0.000008 0.054999 0.054996 13.088836 2.015203 10.829947 -0.015000 0.120004 0.000008 -51.266317 -10.974382 -5.355282 0.009999 0.100008 0.000000 -17.548209 -14.726685 -18.023247 0.000008 -0.040099 -0.000004 -22.635611 -3.313792 12.129800 -0.000008 -0.100015 -0.000004 -21.694107 0.027080 4.145758 0.000005 -0.075015 -0.097985 -77.529867 -16.070465 174.908768 -0.090000 -0.009000 -0.000006 -4.266990 -23.224392 -1.769842 -0.000000 -0.075000 0.097985 279.117046 30.426731 192.975548 -0.090000 -0.009000 0.000000 -10.081772 17.740786 27.056589 
0.000000 0.000000 0.000000 -125.027132 78.926265 -128.391888 0.010000 0.060000 0.000000 -0.000003 0.000001 -0.000009 -0.000000 0.055000 -0.054996 21.602304 3.101999 9.822487 -0.014992 0.119999 0.000008 -16.715087 0.771015 2.369154 0.009999 0.099998 -0.000008 3.630450 -4.225915 -7.416159 0.010000 0.060000 0.000000 0.000000 0.000003 -0.000003 -0.000000 0.055000 0.055004 19.299873 1.540849 9.874709 -0.015002 0.120000 0.000008 -55.508377 -8.416714 -4.425412 0.010000 0.100000 -0.000000 -13.699083 -10.720036 -12.910081 -0.000008 -0.039992 -0.000000 -23.494835 -2.227669 10.722489 -0.000008 -0.100000 -0.000004 -21.226893 -0.206791 3.714152 0.000005 -0.075007 -0.097985 -72.474447 -17.574324 170.535357 -0.090008 -0.009000 0.000001 -7.060826 -22.618392 -3.719955 0.000008 -0.074999 0.098000 277.408242 29.286919 190.592016 -0.089992 -0.009000 -0.000008 -11.192779 17.698711 27.155056 
0.000000 0.000000 0.000000 -116.083628 79.838505 -118.656915 0.010000 0.060000 0.000000 0.000000 -0.000004 -0.000003 0.000009 0.054993 -0.054992 17.374306 2.529130 8.761103 -0.015000 0.119996 0.000004 -14.083677 1.045539 2.333150 0.009995 0.099998 -0.000004 4.621080 -1.210098 -6.201068 0.010000 0.060000 0.000000 0.000001 -0.000002 0.000005 0.000005 0.054993 0.055004 24.629065 1.585947 8.411865 -0.014998 0.119996 0.000015 -55.821422 -5.989644 -3.386822 0.010004 0.099999 0.000008 -9.303802 -2.980766 -5.060631 0.000008 -0.040000 0.000004 -23.413470 -0.966190 9.486557 0.000015 -0.100000 0.000008 -20.144692 -0.218038 3.698600 0.000005 -0.075007 -0.097985 -67.417710 -18.427434 165.349126 -0.089992 -0.009000 -0.000000 -10.975481 -21.663523 -5.586187 -0.000015 -0.075002 0.098000 276.108430 28.277542 188.498236 -0.089992 -0.009008 -0.000008 -12.266495 17.768519 27.458090 
